<svg xmlns="http://www.w3.org/2000/svg" width="34.693" height="34.693" viewBox="0 0 34.693 34.693">
  <g id="instagram" transform="translate(-31 -31)">
    <circle id="Ellipse_142" data-name="Ellipse 142" cx="17.346" cy="17.346" r="17.346" transform="translate(31 31)" fill="#fff"/>
    <g id="Group_1023" data-name="Group 1023" transform="translate(38.759 38.751)">
      <path id="Path_39037" data-name="Path 39037" d="M144.486,131h-7.4a5.988,5.988,0,0,0-5.984,5.984v7.4a5.988,5.988,0,0,0,5.984,5.984h7.4a5.988,5.988,0,0,0,5.984-5.984v-7.4A5.988,5.988,0,0,0,144.486,131Zm3.821,13.394a3.832,3.832,0,0,1-3.829,3.829h-7.4a3.832,3.832,0,0,1-3.829-3.829v-7.4a3.832,3.832,0,0,1,3.829-3.829h7.4a3.832,3.832,0,0,1,3.829,3.829Z" transform="translate(-131.1 -131)"/>
      <path id="Path_39038" data-name="Path 39038" d="M197.053,192.1a4.953,4.953,0,1,0,4.953,4.953A4.962,4.962,0,0,0,197.053,192.1Zm0,7.961a3.007,3.007,0,1,1,3.007-3.007A3.01,3.01,0,0,1,197.053,200.061Z" transform="translate(-187.372 -187.364)"/>
      <circle id="Ellipse_143" data-name="Ellipse 143" cx="0.837" cy="0.837" r="0.837" transform="matrix(0.987, -0.16, 0.16, 0.987, 13.918, 3.76)"/>
    </g>
  </g>
</svg>
