<svg xmlns="http://www.w3.org/2000/svg" width="34.747" height="34.747" viewBox="0 0 34.747 34.747">
  <g id="linkedin" transform="translate(0 0.001)">
    <circle id="Ellipse_141" data-name="Ellipse 141" cx="17.374" cy="17.374" r="17.374" transform="translate(0 -0.001)" fill="#fff"/>
    <g id="Group_1022" data-name="Group 1022" transform="translate(8.383 7.423)">
      <path id="Path_39036" data-name="Path 39036" d="M46.439,35.317V42.48H42.286V35.8c0-1.678-.6-2.824-2.1-2.824a2.272,2.272,0,0,0-2.13,1.518,2.842,2.842,0,0,0-.138,1.012v6.976H33.762s.056-11.318,0-12.49h4.153v1.77c-.008.014-.02.028-.028.041h.028v-.041A4.123,4.123,0,0,1,41.659,29.7c2.732,0,4.781,1.785,4.781,5.621ZM29.418,23.969a2.164,2.164,0,1,0-.055,4.316h.027a2.165,2.165,0,1,0,.028-4.316Zm-2.1,18.511h4.152V29.99H27.315Z" transform="translate(-27.068 -23.969)"/>
    </g>
  </g>
</svg>
