<svg id="Layer_2" data-name="Layer 2" xmlns="http://www.w3.org/2000/svg" width="34.251" height="35.624" viewBox="0 0 34.251 35.624">
  <g id="Color">
    <g id="_04.Twitter" data-name="04.Twitter">
      <ellipse id="Background" cx="17.125" cy="17.812" rx="17.125" ry="17.812" fill="#fff"/>
      <path id="Icon" d="M49.515,38.375a9.08,9.08,0,0,1-2.684.8,4.99,4.99,0,0,0,2.049-2.805A8.857,8.857,0,0,1,45.927,37.6a4.395,4.395,0,0,0-5.113-1.253,5.087,5.087,0,0,0-2.945,4.722,5.7,5.7,0,0,0,.108,1.156,12.864,12.864,0,0,1-9.6-5.306,5.358,5.358,0,0,0,1.433,6.787,4.312,4.312,0,0,1-2.1-.626v.055a5.012,5.012,0,0,0,3.732,4.982,4.287,4.287,0,0,1-1.221.166,3.824,3.824,0,0,1-.884-.085,4.775,4.775,0,0,0,4.355,3.534A8.889,8.889,0,0,1,27.915,53.9a7.731,7.731,0,0,1-1.115-.07A12.336,12.336,0,0,0,33.954,56.1c8.573,0,13.26-7.735,13.26-14.439,0-.224,0-.44-.016-.656A9.778,9.778,0,0,0,49.515,38.375Z" transform="translate(-21.015 -28.223)"/>
    </g>
  </g>
</svg>
