<svg xmlns="http://www.w3.org/2000/svg" width="34.693" height="34.693" viewBox="0 0 34.693 34.693">
  <g id="instagram" transform="translate(-31 -31)">
    <circle id="Ellipse_142" data-name="Ellipse 142" cx="17.346" cy="17.346" r="17.346" transform="translate(31 31)" fill="#fff"/>
    <path id="whatsapp" d="M17.722,2.986A10.185,10.185,0,0,0,1.694,15.273L.25,20.55l5.4-1.416a10.172,10.172,0,0,0,4.866,1.239h0a10.187,10.187,0,0,0,7.2-17.387Zm-7.2,15.667h0a8.453,8.453,0,0,1-4.308-1.18L5.9,17.29l-3.2.84.855-3.123-.2-.32a8.464,8.464,0,1,1,7.17,3.966Zm4.643-6.339c-.254-.127-1.505-.743-1.739-.828s-.4-.127-.572.127-.657.828-.806,1-.3.191-.551.064a6.95,6.95,0,0,1-2.046-1.263A7.675,7.675,0,0,1,8.031,9.65c-.148-.255,0-.379.112-.519a7.2,7.2,0,0,0,.636-.87.468.468,0,0,0-.021-.446c-.063-.127-.572-1.38-.784-1.889S7.557,5.5,7.4,5.489s-.318-.009-.488-.009a.935.935,0,0,0-.679.318,2.854,2.854,0,0,0-.89,2.123,4.95,4.95,0,0,0,1.039,2.632,11.341,11.341,0,0,0,4.347,3.842,14.564,14.564,0,0,0,1.451.536,3.488,3.488,0,0,0,1.6.1,2.621,2.621,0,0,0,1.717-1.21,2.126,2.126,0,0,0,.148-1.21c-.063-.106-.233-.17-.488-.3Zm0,0" transform="translate(37.871 38.071)" fill-rule="evenodd"/>
  </g>
</svg>
