<svg xmlns="http://www.w3.org/2000/svg" width="66.207" height="60" viewBox="0 0 66.207 60">
  <g id="adwords" transform="translate(0 -24)">
    <path id="Path_39049" data-name="Path 39049" d="M36.6,25.278a9.024,9.024,0,0,0-12.565,3.489L1.234,69.7A9.725,9.725,0,0,0,4.6,82.721a9.024,9.024,0,0,0,12.565-3.489L39.966,38.3A9.725,9.725,0,0,0,36.6,25.278Z" transform="translate(-0.001 0)" fill="#ffc107"/>
    <path id="Path_39050" data-name="Path 39050" d="M87.455,25.281a8.886,8.886,0,0,0-6.528-1.065,9,9,0,0,1,2.665,1.065A9.725,9.725,0,0,1,86.958,38.3l-22.8,40.931a9.2,9.2,0,0,1-6.037,4.554,9.08,9.08,0,0,0,9.9-4.554L90.821,38.3A9.725,9.725,0,0,0,87.455,25.281Z" transform="translate(-50.856 -0.003)" fill="#ffb300"/>
    <ellipse id="Ellipse_145" data-name="Ellipse 145" cx="9.188" cy="9.206" rx="9.188" ry="9.206" transform="translate(0 65.588)" fill="#4caf50"/>
    <path id="Path_39051" data-name="Path 39051" d="M58.113,400.878v0a9.208,9.208,0,0,0,10.537-12.213l-4.5,7.807A9.175,9.175,0,0,1,58.113,400.878Z" transform="translate(-50.848 -317.085)" fill="#43a047"/>
    <path id="Path_39052" data-name="Path 39052" d="M222.372,69.7l-22.8-40.93a9.024,9.024,0,0,0-12.565-3.489A9.725,9.725,0,0,0,183.64,38.3l22.8,40.931a9.024,9.024,0,0,0,12.565,3.489A9.725,9.725,0,0,0,222.372,69.7Z" transform="translate(-157.399 -0.001)" fill="#2196f3"/>
    <path id="Path_39053" data-name="Path 39053" d="M273.228,69.711l-22.8-40.93a9.08,9.08,0,0,0-9.9-4.554,9.2,9.2,0,0,1,6.037,4.554l22.8,40.931A9.725,9.725,0,0,1,266,82.733a9,9,0,0,1-2.665,1.065,8.886,8.886,0,0,0,6.528-1.065,9.725,9.725,0,0,0,3.366-13.023Z" transform="translate(-208.255 -0.012)" fill="#1e88e5"/>
  </g>
</svg>
