<svg id="social-media-marketing" xmlns="http://www.w3.org/2000/svg" width="72" height="72" viewBox="0 0 72 72">
  <g id="Group_1028" data-name="Group 1028" transform="translate(17.016 17.016)">
    <path id="Path_39040" data-name="Path 39040" d="M175.984,175.984H158.969a4.341,4.341,0,0,1-4.219-4.359V154.75h8.438v-4.219H154.75v-4.219a8.446,8.446,0,0,1,8.438-8.437v-4.219a12.67,12.67,0,0,0-12.656,12.656v4.219h-4.219v4.219h4.219v16.875a4.341,4.341,0,0,1-4.219,4.359H121V137.875h16.875V121h38.109Z" transform="translate(-121 -121)" fill="#59abff"/>
  </g>
  <g id="Group_1029" data-name="Group 1029" transform="translate(44.437 17.016)">
    <path id="Path_39041" data-name="Path 39041" d="M322.328,154.75v16.875a4.341,4.341,0,0,0,4.219,4.359h17.016V121H316v29.531h2.109v-4.219a12.67,12.67,0,0,1,12.656-12.656v4.219a8.446,8.446,0,0,0-8.437,8.438v4.219h8.438v4.219Z" transform="translate(-316 -121)" fill="#4d87ff"/>
    <path id="Path_39042" data-name="Path 39042" d="M318.109,377.875V361H316v20.588A4.392,4.392,0,0,0,318.109,377.875Z" transform="translate(-316 -327.25)" fill="#59abff"/>
  </g>
  <g id="Marketing_Media_11_" transform="translate(38.109 25.453)">
    <g id="Group_1030" data-name="Group 1030">
      <path id="Path_39043" data-name="Path 39043" d="M292.094,193.656h4.219V181h-4.219a16.783,16.783,0,0,0-14.766,8.733,16.592,16.592,0,0,0-2.109,8.142H271v12.656h4.219v17.016h12.656V210.531h8.438V197.875h-8.438A4.231,4.231,0,0,1,292.094,193.656Z" transform="translate(-271 -181)" fill="#f3f5f9"/>
    </g>
  </g>
  <g id="Group_1032" data-name="Group 1032">
    <g id="Group_1031" data-name="Group 1031">
      <path id="Path_39044" data-name="Path 39044" d="M38.109,38.109H0V0H38.109Z" fill="#ff7040"/>
    </g>
    <path id="Path_39045" data-name="Path 39045" d="M135.843,0h19.006V38.109H135.843Z" transform="translate(-116.74)" fill="#f24b3c"/>
  </g>
  <g id="Group_1033" data-name="Group 1033" transform="translate(10.687 9.384)">
    <path id="Path_39046" data-name="Path 39046" d="M76,86.211V66.728l19.483,9.741Z" transform="translate(-76 -66.728)" fill="#f3f5f9"/>
  </g>
  <g id="Group_1034" data-name="Group 1034" transform="translate(19.103 13.591)">
    <path id="Path_39047" data-name="Path 39047" d="M135.843,107.716l11.067-5.534-11.067-5.534Z" transform="translate(-135.843 -96.649)" fill="#e1e6f0"/>
    <path id="Path_39048" data-name="Path 39048" d="M326.547,197.875h8.438v12.656h-8.437v17.016H316V189.733A16.783,16.783,0,0,1,330.766,181h4.219v12.656h-4.219A4.231,4.231,0,0,0,326.547,197.875Z" transform="translate(-290.665 -169.138)" fill="#e1e6f0"/>
  </g>
</svg>
